<svg width="661" height="835" viewBox="0 0 661 835" fill="none" xmlns="http://www.w3.org/2000/svg">
<rect width="661" height="835" fill="url(#paint0_linear_0_10)"/>
<mask id="mask0_0_10" style="mask-type:alpha" maskUnits="userSpaceOnUse" x="0" y="0" width="661" height="835">
<rect width="661" height="835" fill="white"/>
</mask>
<g mask="url(#mask0_0_10)">
<path opacity="0.793085" fill-rule="evenodd" clip-rule="evenodd" d="M0 259C0 259 113.296 262.754 97.2818 375.888C81.2675 489.022 91.5917 539.348 161.362 539.348C231.133 539.348 279.975 586.18 279.975 655.08C279.975 723.981 356.678 702.787 387.487 739.68C418.297 776.573 404.983 835 404.983 835H0V259Z" fill="url(#paint1_linear_0_10)"/>
<path opacity="0.793085" fill-rule="evenodd" clip-rule="evenodd" d="M699.992 503.164C699.992 503.164 605.258 499.676 618.648 394.562C632.039 289.449 623.406 242.691 565.066 242.691C506.727 242.691 465.887 199.18 465.887 135.164C465.887 71.1484 401.75 90.8398 375.988 56.5625C350.227 22.2852 361.359 -32 361.359 -32H699.992V503.164Z" fill="url(#paint2_linear_0_10)"/>
<circle cx="344" cy="196" r="90" fill="url(#paint3_linear_0_10)"/>
<circle opacity="0.793085" cx="174.5" cy="455.5" r="65.5" fill="url(#paint4_linear_0_10)"/>
<circle opacity="0.793085" cx="551.5" cy="761.5" r="22.5" fill="url(#paint5_linear_0_10)"/>
</g>
<defs>
<linearGradient id="paint0_linear_0_10" x1="657.593" y1="826.392" x2="657.593" y2="0" gradientUnits="userSpaceOnUse">
<stop stop-color="#581677"/>
<stop offset="1" stop-color="#2F2692"/>
</linearGradient>
<linearGradient id="paint1_linear_0_10" x1="407.273" y1="835" x2="407.273" y2="263.865" gradientUnits="userSpaceOnUse">
<stop stop-color="#BE00FB"/>
<stop offset="1" stop-color="#0084DB"/>
</linearGradient>
<linearGradient id="paint2_linear_0_10" x1="362.997" y1="-32" x2="362.997" y2="487.524" gradientUnits="userSpaceOnUse">
<stop stop-color="#6325B1"/>
<stop offset="1" stop-color="#DB00B1"/>
</linearGradient>
<linearGradient id="paint3_linear_0_10" x1="429.339" y1="108.229" x2="256.404" y2="108.229" gradientUnits="userSpaceOnUse">
<stop stop-color="#C620EC" stop-opacity="0.0752841"/>
<stop offset="1" stop-color="#1DBEDD"/>
</linearGradient>
<linearGradient id="paint4_linear_0_10" x1="238.086" y1="521" x2="238.086" y2="393.829" gradientUnits="userSpaceOnUse">
<stop stop-color="#6325B1"/>
<stop offset="1" stop-color="#DB00B1"/>
</linearGradient>
<linearGradient id="paint5_linear_0_10" x1="573.342" y1="784" x2="573.342" y2="740.315" gradientUnits="userSpaceOnUse">
<stop stop-color="#6325B1"/>
<stop offset="1" stop-color="#DB00B1"/>
</linearGradient>
</defs>
</svg>
